<?xml version="1.0" encoding="utf-8"?>
<!-- Generator: Adobe Illustrator 26.0.2, SVG Export Plug-In . SVG Version: 6.00 Build 0)  -->
<svg version="1.1" id="Calque_1" xmlns="http://www.w3.org/2000/svg" xmlns:xlink="http://www.w3.org/1999/xlink" x="0px" y="0px"
	 viewBox="0 0 16 16" style="enable-background:new 0 0 16 16;" xml:space="preserve">
<style type="text/css">
	.st0{fill:#FFFFFF;}
</style>
<path class="st0" d="M14.93,4.29H1.07C0.48,4.29,0,3.81,0,3.21v0c0-0.59,0.48-1.07,1.07-1.07h13.86c0.59,0,1.07,0.48,1.07,1.07v0
	C16,3.81,15.52,4.29,14.93,4.29z"/>
<path class="st0" d="M14.93,9.07H1.07C0.48,9.07,0,8.59,0,8v0c0-0.59,0.48-1.07,1.07-1.07h13.86C15.52,6.93,16,7.41,16,8v0
	C16,8.59,15.52,9.07,14.93,9.07z"/>
<path class="st0" d="M14.93,13.86H1.07C0.48,13.86,0,13.38,0,12.79v0c0-0.59,0.48-1.07,1.07-1.07h13.86c0.59,0,1.07,0.48,1.07,1.07
	v0C16,13.38,15.52,13.86,14.93,13.86z"/>
</svg>
