<svg id="Calque_2" data-name="Calque 2" xmlns="http://www.w3.org/2000/svg" viewBox="0 0 669.78 135.41"><defs><style>.cls-1,.cls-3{fill:#fff;}.cls-1,.cls-2,.cls-3{stroke:#006cb9;stroke-miterlimit:10;stroke-width:3px;}.cls-2{fill:none;}.cls-3{font-size:100px;font-family:UniversLTStd-BoldObl, Univers LT Std;font-weight:700;font-style:oblique;}.cls-4{letter-spacing:-0.03em;}</style></defs><polygon class="cls-1" points="172 104.62 197.82 104.55 224.55 29.41 197.97 29.41 172 104.62"/><path class="cls-1" d="M143.77,450.36c29.83.09,52.6-19.69,73.57-44.51h22.48l-13.77,38.09h26.22l30-84.44H329.5c12.16.09,17.9,5.37,17,16-4.49,14.95-24.75,19.46-39,25l17.84,38.83A14,14,0,0,0,333,444h31c9.5.16,14-5,15-12l-29.22.22L337,404c28.62-12.83,39.5-22.5,40.83-35.21,1.31-16.25-8.83-25.79-33.1-27.91H253.59l-44.38,53.25-24.89.33c-38,2.85-63.82,18-65.27,37C118.5,442.5,127.68,449.42,143.77,450.36ZM259.16,353l-15.75,41.09L227,394Zm-107.52,73c2.57-9.06,9.72-16.79,33.42-19.69H199C189,421,167,435,158,434,153,434,150.67,430.85,151.64,426.05Z" transform="translate(-93 -339.38)"/><polygon class="cls-2" points="134 54.62 150.41 54.75 166.16 13.66 134 54.62"/><path class="cls-2" d="M151.64,426.05c-1,4.8,1.36,7.95,6.36,7.95,9,1,31-13,40.95-27.64H185.06C161.36,409.26,154.21,417,151.64,426.05Z" transform="translate(-93 -339.38)"/><rect class="cls-1" x="1.5" y="120.12" width="653" height="13"/><text class="cls-3" transform="translate(289.48 106.91)">t<tspan class="cls-4" x="38.9" y="0">r</tspan><tspan x="74.8" y="0">em3w</tspan></text></svg>